<?xml version="1.0" standalone="no"?>
<!DOCTYPE svg PUBLIC "-//W3C//DTD SVG 20010904//EN"
 "http://www.w3.org/TR/2001/REC-SVG-20010904/DTD/svg10.dtd">
<svg version="1.0" xmlns="http://www.w3.org/2000/svg"
 width="2048.000000pt" height="1130.000000pt" viewBox="0 0 2048.000000 1130.000000"
 preserveAspectRatio="xMidYMid meet">

<g transform="translate(0.000000,1130.000000) scale(0.100000,-0.100000)"
fill="#000000" stroke="none">
<path d="M10877 8973 c-4 -3 -7 -25 -7 -47 0 -23 -16 -154 -36 -291 -20 -138
-38 -268 -40 -290 -5 -42 -32 -233 -40 -272 l-4 -23 -883 0 c-835 0 -885 -1
-919 -18 -54 -28 -92 -62 -124 -111 l-29 -45 -5 -989 -5 -990 -75 -24 c-121
-40 -137 -49 -142 -77 -6 -30 16 -66 40 -66 10 0 65 16 122 36 168 58 473 137
650 169 397 71 719 99 1070 92 239 -5 524 -25 650 -47 30 -5 111 -19 180 -30
250 -41 683 -151 836 -211 35 -14 82 -5 91 16 10 28 -6 60 -39 77 -18 9 -86
32 -150 53 -65 20 -118 37 -118 38 0 1 -3 106 -6 232 -3 127 -7 236 -9 243 -3
7 -21 12 -45 12 l-40 0 0 -224 c0 -131 -4 -227 -9 -231 -6 -3 -36 3 -68 14
-32 10 -99 26 -149 35 -49 9 -106 21 -125 27 -31 9 -162 29 -307 46 -30 3 -56
11 -58 17 -2 6 -5 393 -7 860 -3 823 -4 849 -22 863 -30 21 -1291 15 -1305 -7
-6 -9 -9 -340 -8 -852 2 -656 0 -840 -10 -850 -7 -7 -41 -15 -75 -19 -76 -8
-254 -35 -322 -49 -27 -5 -84 -17 -125 -25 -67 -13 -111 -24 -268 -66 -23 -6
-45 -9 -47 -7 -3 3 -5 433 -5 957 0 940 0 953 20 981 11 16 40 38 64 49 43 21
45 21 1091 21 l1048 -1 23 38 c12 21 20 41 18 44 -2 4 -39 10 -82 14 -42 3
-92 8 -111 11 l-34 5 7 67 c10 95 16 147 30 227 l11 70 65 -1 c59 -2 228 -26
273 -40 11 -4 17 -16 17 -37 0 -30 2 -28 33 29 18 34 43 74 56 89 19 25 20 30
6 37 -22 13 -20 68 3 69 16 2 29 3 57 8 6 0 25 25 42 54 29 47 32 61 35 152
l3 100 -65 6 c-71 8 -342 48 -484 73 -97 17 -129 20 -139 9z m107 -96 c16 -11
17 -17 7 -36 -14 -26 -48 -25 -64 1 -8 12 -7 21 2 32 16 19 31 20 55 3z m241
-27 c154 -21 184 -33 169 -70 -3 -8 -12 -76 -21 -150 -8 -74 -19 -139 -24
-145 -10 -11 -52 -9 -189 6 -52 6 -105 11 -117 11 -43 1 -53 26 -42 108 18
148 31 235 34 248 6 16 13 15 190 -8z m283 -63 c3 -27 2 -28 -35 -25 -33 3
-38 6 -41 31 -3 27 -2 28 35 25 33 -3 38 -6 41 -31z m-539 -25 c6 -10 7 -29 4
-41 -4 -18 -12 -21 -37 -19 -37 4 -46 30 -20 59 22 24 40 24 53 1z m515 -78
c13 -33 6 -44 -24 -44 -34 0 -49 22 -30 45 16 20 46 19 54 -1z m-537 -46 c28
-45 -7 -78 -50 -45 -14 11 -14 16 -2 45 17 38 30 38 52 0z m-13 -124 c31 -30
8 -60 -40 -55 -16 1 -23 35 -12 55 11 20 32 21 52 0z m-14 -120 c11 -13 9 -19
-14 -42 -26 -26 -27 -27 -42 -8 -20 28 -18 45 9 56 31 12 33 12 47 -6z m-22
-146 c3 -25 0 -28 -28 -28 -35 0 -49 22 -29 46 20 24 53 14 57 -18z m-11 -111
c9 -19 8 -26 -8 -35 -30 -19 -56 -14 -62 10 -13 47 50 69 70 25z m-592 -489
c-11 -133 -31 -220 -85 -377 -56 -159 -110 -254 -189 -330 -64 -61 -110 -95
-118 -87 -4 3 11 41 32 84 96 194 146 354 152 493 4 72 2 109 -6 113 -18 11
-51 -13 -51 -38 0 -53 -61 -309 -96 -401 -35 -95 -81 -182 -90 -173 -2 3 -3
110 -3 239 1 129 0 307 -1 397 l-2 162 232 0 232 0 -7 -82z m675 50 c0 -18 2
-201 5 -406 3 -268 1 -372 -7 -370 -6 2 -29 44 -50 94 -21 49 -46 104 -54 122
-25 54 -72 253 -80 336 -7 78 -21 99 -51 74 -13 -10 -14 -28 -9 -98 14 -170
75 -371 155 -510 42 -72 54 -100 43 -100 -37 0 -156 114 -219 209 -47 70 -114
224 -142 321 -22 80 -56 335 -46 350 4 6 99 10 231 10 l224 0 0 -32z m-561
-75 c5 -10 21 -76 36 -148 62 -302 136 -460 287 -612 34 -34 74 -67 90 -74 35
-14 35 -29 -1 -93 -58 -103 -122 -334 -136 -496 l-6 -65 -272 1 -272 1 -7 64
c-11 86 -47 279 -57 304 -5 11 -21 54 -36 95 -14 41 -37 94 -51 117 -13 23
-24 44 -24 47 0 3 19 18 43 34 55 39 154 137 162 162 4 11 11 20 16 20 5 0 9
6 9 14 0 7 7 19 15 26 18 15 93 170 111 232 23 74 61 257 69 326 4 34 9 62 11
62 2 0 7 -8 13 -17z m-539 -908 c58 -70 147 -354 157 -502 l6 -82 -34 -6 c-19
-3 -61 -5 -94 -3 l-60 3 -3 303 c-1 172 2 302 7 302 5 0 14 -7 21 -15z m1103
-295 c-2 -162 -3 -299 -3 -304 0 -8 -146 0 -182 10 -18 5 -18 12 8 164 39 222
120 436 163 428 14 -3 16 -33 14 -298z"/>
<path d="M12080 8960 c0 -5 5 -10 11 -10 5 0 7 5 4 10 -3 6 -8 10 -11 10 -2 0
-4 -4 -4 -10z"/>
<path d="M12524 8295 c-78 -34 -174 -82 -215 -106 -41 -23 -100 -57 -132 -74
-157 -84 -467 -324 -566 -438 -46 -54 -45 -51 -31 -78 14 -26 29 -24 40 6 11
28 41 33 60 10 17 -20 6 -43 -26 -55 -24 -10 -25 -12 -12 -32 8 -12 19 -23 25
-25 6 -2 57 44 115 103 l104 106 22 -23 c32 -35 81 -97 137 -174 28 -38 54
-74 60 -81 7 -10 -12 -36 -76 -101 -103 -105 -160 -179 -153 -198 9 -23 44
-28 64 -10 11 10 27 40 36 69 19 59 58 106 89 106 16 0 23 -10 33 -45 7 -28
18 -45 27 -45 8 0 15 3 15 8 0 4 48 45 107 92 58 47 120 97 136 113 15 15 31
27 33 27 3 0 51 26 107 59 105 61 373 198 440 225 36 15 46 33 28 52 -6 5 -35
59 -64 120 -30 61 -73 141 -96 178 -23 38 -41 70 -41 72 0 7 -91 156 -110 180
l-16 22 -140 -63z m110 -37 c12 -16 13 -25 4 -35 -15 -18 -48 -13 -62 10 -9
15 -7 21 8 33 26 19 32 18 50 -8z m-126 -50 c18 -18 15 -36 -9 -49 -28 -15
-54 9 -44 40 7 23 34 28 53 9z m192 -41 c0 -16 88 -185 128 -245 20 -30 31
-57 26 -62 -5 -4 -43 -22 -84 -40 -41 -18 -110 -50 -153 -72 -43 -21 -81 -36
-86 -34 -16 10 -183 296 -179 307 2 6 73 46 157 89 143 72 191 86 191 57z
m-292 -34 c4 -25 -27 -46 -52 -37 -16 6 -22 45 -9 58 16 15 58 1 61 -21z
m-127 -44 c22 -22 21 -37 -3 -52 -25 -16 -48 -1 -48 31 0 47 18 54 51 21z
m-103 -77 c5 -33 -15 -54 -39 -41 -22 11 -25 39 -7 57 19 19 43 10 46 -16z
m-113 -58 c19 -19 16 -43 -7 -57 -33 -21 -65 32 -36 61 16 16 23 15 43 -4z
m244 -34 c17 -28 31 -53 31 -55 0 -5 55 -93 92 -147 27 -40 23 -62 -15 -80
-18 -9 -79 -48 -135 -87 -55 -39 -107 -68 -115 -66 -7 3 -35 37 -63 76 -27 38
-70 100 -96 136 -26 36 -45 69 -43 73 6 9 189 141 228 163 18 11 36 23 42 28
21 20 45 7 74 -41z m-339 -49 c7 -15 6 -23 -6 -35 -32 -32 -75 -5 -54 33 14
26 46 27 60 2z m920 -97 c0 -26 -17 -34 -47 -23 -32 12 -30 45 5 57 30 10 42
1 42 -34z m-1020 0 c0 -7 -10 -20 -22 -28 -19 -14 -24 -14 -36 -2 -17 17 -7
53 16 59 20 4 42 -10 42 -29z m1095 -4 c3 -5 -1 -10 -9 -10 -9 0 -16 5 -16 10
0 6 4 10 9 10 6 0 13 -4 16 -10z m-201 -35 c10 -28 -5 -45 -40 -45 -27 0 -34
4 -34 20 0 34 62 55 74 25z m-999 -44 c0 -34 -32 -52 -50 -27 -19 25 -2 58 28
54 16 -2 22 -10 22 -27z m875 -30 c0 -22 -4 -26 -43 -35 -20 -5 -29 -2 -33 9
-11 28 4 45 41 45 28 0 35 -4 35 -19z m-136 -63 c14 -23 -3 -52 -32 -56 -32
-5 -49 34 -26 59 21 23 42 21 58 -3z m-101 -70 c14 -22 -7 -48 -40 -48 -31 0
-40 26 -17 51 20 23 42 22 57 -3z m-113 -78 c7 -14 6 -23 -6 -34 -21 -21 -54
-4 -54 29 0 38 41 41 60 5z m-102 -91 c4 -31 -17 -50 -46 -42 -44 11 -17 78
28 70 8 -1 16 -14 18 -28z"/>
<path d="M9292 8218 c-16 -16 -15 -35 2 -41 10 -4 12 0 9 14 -3 10 0 19 6 19
6 0 11 5 11 10 0 14 -13 13 -28 -2z"/>
<path d="M11341 8149 c-7 -12 -10 -23 -8 -26 3 -3 11 5 17 17 6 12 10 23 8 25
-2 2 -10 -5 -17 -16z"/>
<path d="M11490 7090 c-11 -11 -20 -26 -20 -34 0 -30 -42 -46 -121 -46 -113 0
-109 8 -109 -248 0 -207 0 -211 22 -226 19 -14 71 -16 359 -16 325 0 337 1
363 21 24 19 26 26 26 103 0 109 -37 241 -76 273 -15 12 -39 25 -53 28 -34 8
-61 33 -61 55 0 10 -9 20 -20 23 -11 3 -27 21 -35 40 -17 41 -38 47 -166 47
-76 0 -92 -3 -109 -20z m225 -143 c45 -25 91 -87 98 -132 9 -52 -11 -126 -41
-158 -97 -102 -262 -84 -323 34 -42 84 -10 202 70 254 50 33 140 34 196 2z"/>
<path d="M9113 6633 c-5 -16 -8 -71 -8 -124 0 -142 -5 -139 206 -139 139 0
170 3 183 16 13 12 16 38 16 119 0 57 -4 115 -10 129 l-10 26 -185 0 -185 0
-7 -27z m327 -113 l0 -70 -129 0 c-147 0 -140 -5 -133 93 l4 47 129 0 129 0 0
-70z"/>
<path d="M8021 6424 c0 -11 3 -14 6 -6 3 7 2 16 -1 19 -3 4 -6 -2 -5 -13z"/>
<path d="M12240 6205 c0 -14 2 -25 4 -25 2 0 6 11 8 25 3 14 1 25 -3 25 -5 0
-9 -11 -9 -25z"/>
<path d="M13844 6097 c-76 -29 -98 -68 -114 -198 -5 -41 -16 -119 -25 -174 -9
-55 -34 -219 -56 -365 -54 -364 -65 -421 -95 -484 -27 -57 -102 -145 -141
-165 -36 -18 -80 -13 -110 13 l-28 24 1 129 c1 70 7 157 13 193 13 70 61 389
61 402 0 4 21 8 48 9 132 1 192 33 192 102 0 81 -31 103 -128 92 -33 -4 -62
-3 -65 2 -3 4 1 46 9 93 22 134 19 163 -15 183 -42 25 -126 22 -176 -6 -52
-29 -74 -74 -93 -193 -10 -62 -20 -95 -30 -99 -8 -3 -48 -8 -89 -12 -89 -7
-112 -23 -120 -78 -8 -62 21 -83 117 -87 87 -3 83 6 53 -136 -21 -96 -41 -123
-127 -165 -30 -15 -57 -27 -59 -27 -2 0 -10 28 -17 63 -41 213 -188 324 -394
295 -130 -18 -241 -97 -338 -243 -45 -68 -84 -105 -130 -125 -13 -6 -30 -15
-39 -22 -28 -20 -46 -3 -54 51 -4 27 -19 76 -35 108 -58 125 -131 174 -267
181 -101 5 -162 -12 -248 -71 -71 -48 -70 -47 -122 -117 -122 -164 -165 -371
-119 -572 42 -181 168 -288 340 -288 66 0 143 17 193 43 65 34 152 126 188
201 37 76 75 194 75 236 0 30 17 50 41 50 9 0 28 9 42 20 33 26 45 25 40 -4
-8 -40 16 -203 38 -258 59 -149 176 -228 341 -228 179 0 319 102 397 290 21
52 45 121 52 152 l12 58 65 30 c35 16 68 30 73 30 4 0 5 -33 1 -72 -4 -40 -6
-120 -6 -178 2 -127 25 -192 86 -244 110 -95 312 -81 422 28 20 20 40 35 45
32 5 -3 12 -22 15 -41 8 -43 35 -61 105 -75 65 -12 126 1 142 31 6 11 17 80
24 152 33 305 86 476 178 565 37 36 94 55 120 40 24 -13 40 -84 32 -147 -3
-31 -15 -116 -27 -190 -26 -172 -22 -254 18 -336 23 -48 39 -66 78 -90 45 -27
57 -30 140 -30 84 0 96 3 160 35 86 44 143 107 198 216 35 72 41 92 40 145 -1
67 -19 99 -56 99 -33 0 -42 -11 -70 -79 -56 -137 -106 -191 -179 -191 -52 0
-70 33 -70 130 0 43 5 99 11 126 51 231 55 375 12 449 -35 59 -50 74 -100 98
-32 16 -64 22 -110 22 -86 0 -147 -30 -227 -112 -47 -47 -63 -58 -63 -44 0 19
40 274 61 386 32 171 46 291 37 308 -21 41 -111 58 -174 34z m-1238 -803 c26
-27 34 -44 34 -72 0 -20 3 -47 6 -59 5 -19 2 -23 -15 -23 -59 0 -121 68 -121
132 0 67 45 77 96 22z m-965 -31 c30 -18 44 -49 54 -124 4 -29 3 -49 -4 -53
-12 -8 -68 16 -98 42 -44 39 -52 110 -15 140 21 16 28 15 63 -5z m739 -124
c30 -71 161 -159 237 -159 20 0 21 -2 9 -52 -32 -137 -145 -263 -219 -244 -88
22 -132 157 -108 326 12 85 38 160 56 160 7 0 18 -14 25 -31z m-952 -57 c2
-12 25 -44 52 -72 41 -42 60 -53 125 -72 l77 -23 -6 -42 c-7 -53 -67 -169
-106 -205 -59 -55 -128 -56 -172 -4 -57 69 -63 296 -12 431 9 23 38 14 42 -13z"/>
<path d="M10345 5820 c-261 -25 -547 -164 -606 -294 -37 -82 -14 -169 53 -202
50 -23 81 -7 128 68 29 47 55 74 102 104 130 84 258 119 420 112 86 -3 110 -7
147 -28 62 -34 86 -79 85 -156 -3 -112 -61 -184 -182 -224 -77 -25 -157 -36
-165 -24 -6 10 3 68 29 178 l18 79 -28 23 c-21 18 -39 24 -77 24 -72 0 -131
-18 -152 -46 -18 -25 -80 -261 -92 -349 -3 -27 -12 -81 -20 -120 -46 -231 -54
-315 -41 -436 8 -74 29 -115 78 -152 67 -50 118 -61 282 -60 163 0 211 8 353
63 137 53 228 132 284 246 31 63 34 76 34 164 0 84 -3 102 -28 152 -32 65 -88
118 -159 150 -26 12 -48 26 -47 32 0 6 27 33 59 59 69 56 115 137 130 230 23
143 -55 285 -195 355 -92 45 -259 67 -410 52z m226 -843 c48 -12 88 -41 127
-91 36 -46 31 -123 -12 -189 -43 -68 -58 -80 -141 -118 -57 -26 -87 -33 -162
-37 -77 -4 -97 -2 -119 13 -27 17 -27 18 -20 107 8 102 34 290 42 298 9 8 136
27 189 28 28 0 71 -5 96 -11z"/>
<path d="M6902 2858 c-8 -8 -12 -63 -12 -180 l0 -168 24 -6 c37 -9 46 2 46 56
0 55 7 60 78 60 93 0 153 64 137 146 -7 38 -51 81 -96 94 -48 14 -162 13 -177
-2z m184 -70 c6 -7 14 -25 18 -39 11 -47 -63 -90 -118 -69 -23 9 -26 15 -26
63 0 30 3 57 8 61 11 12 104 -1 118 -16z"/>
<path d="M7257 2856 c-5 -12 -10 -265 -7 -332 0 -16 29 -26 51 -19 16 5 19 17
19 76 l0 69 81 0 80 0 -2 -66 c-2 -55 1 -69 16 -80 12 -9 23 -10 36 -3 17 9
19 24 19 178 0 180 -5 200 -50 186 -17 -5 -20 -15 -20 -68 0 -34 -4 -68 -9
-75 -5 -9 -28 -12 -77 -10 l-69 3 -5 75 c-5 72 -6 75 -31 78 -17 2 -29 -3 -32
-12z"/>
<path d="M7724 2844 c-80 -55 -104 -112 -85 -203 29 -144 195 -192 307 -89 45
42 59 83 55 163 -3 49 -56 119 -108 140 -57 24 -124 19 -169 -11z m156 -64
c62 -44 67 -144 9 -192 -89 -75 -206 6 -183 127 14 75 110 111 174 65z"/>
<path d="M8062 2860 c-17 -7 -22 -17 -20 -32 3 -20 10 -24 58 -28 l55 -5 1
-130 c2 -163 0 -152 24 -160 43 -14 50 8 50 156 l0 139 43 0 c55 0 83 18 65
42 -10 13 -37 18 -133 22 -71 4 -130 2 -143 -4z"/>
<path d="M8485 2851 c-67 -42 -95 -91 -95 -171 0 -64 11 -90 56 -134 65 -63
148 -69 230 -18 60 37 79 74 78 152 0 88 -27 130 -111 178 -34 19 -123 15
-158 -7z m117 -51 c71 -20 103 -103 67 -177 -16 -34 -28 -45 -59 -54 -46 -14
-82 -6 -111 24 -61 64 -50 159 22 198 41 22 35 21 81 9z"/>
<path d="M8852 2858 c-8 -8 -12 -62 -12 -179 l0 -166 31 -7 c46 -9 148 -7 194
4 50 11 75 41 75 90 0 30 -6 43 -27 60 -26 20 -26 21 -10 49 19 33 22 83 7
112 -6 10 -27 26 -47 34 -44 18 -193 21 -211 3z m196 -76 c34 -44 -1 -74 -82
-70 l-61 3 0 40 c0 33 4 40 25 46 37 10 103 -1 118 -19z m10 -138 c12 -8 22
-24 22 -34 0 -33 -39 -50 -112 -50 l-68 0 0 44 c0 43 1 45 33 49 70 9 104 6
125 -9z"/>
<path d="M9300 2844 c-82 -45 -110 -123 -81 -224 16 -57 35 -78 90 -102 60
-27 119 -26 177 3 70 35 96 83 91 170 -5 76 -20 103 -81 147 -58 42 -129 44
-196 6z m139 -48 c77 -40 88 -152 21 -211 -16 -14 -35 -20 -68 -19 -39 1 -50
6 -79 37 -27 31 -33 44 -33 83 0 41 5 51 39 85 42 43 73 49 120 25z"/>
<path d="M9734 2838 c-57 -40 -84 -87 -84 -150 0 -94 45 -157 130 -183 45 -14
64 -15 96 -6 61 16 106 51 132 101 45 89 20 183 -64 239 -39 26 -57 31 -105
31 -48 0 -64 -5 -105 -32z m143 -40 c84 -38 101 -151 33 -213 -33 -30 -110
-28 -144 4 -73 68 -51 183 40 211 40 12 40 12 71 -2z"/>
<path d="M10080 2850 c-11 -20 -10 -25 6 -37 10 -7 30 -11 44 -8 50 10 54 -2
55 -151 0 -119 2 -138 18 -148 12 -8 22 -8 35 0 14 10 17 28 18 125 0 176 -1
169 37 169 51 0 77 11 77 31 0 10 -4 20 -8 23 -4 2 -67 8 -139 12 -130 7 -131
7 -143 -16z"/>
<path d="M10452 2858 c-14 -14 -17 -325 -3 -346 4 -8 19 -12 32 -10 22 3 24 8
29 78 3 41 8 74 13 73 4 -2 38 -3 77 -3 l69 0 3 -72 3 -73 30 0 30 0 3 174 c1
101 -2 179 -7 184 -5 5 -21 7 -35 3 -24 -6 -25 -11 -28 -79 l-3 -72 -75 0 -75
0 -3 65 c-4 82 -27 111 -60 78z"/>
<path d="M11054 2860 c-36 -14 -64 -59 -64 -102 0 -49 31 -83 91 -97 76 -19
92 -26 103 -43 16 -26 -3 -51 -45 -60 -26 -6 -45 -2 -83 18 -37 19 -52 22 -62
13 -22 -18 -16 -36 19 -57 80 -48 162 -48 214 0 52 48 31 136 -40 168 -23 11
-51 20 -62 20 -55 0 -90 71 -42 84 37 10 66 7 99 -10 27 -14 32 -14 45 -1 47
47 -91 100 -173 67z"/>
<path d="M11350 2855 c-17 -21 -14 -336 3 -347 7 -4 62 -8 123 -8 116 0 144
10 130 45 -4 12 -24 15 -94 15 -99 0 -116 9 -110 57 3 28 4 28 83 31 58 2 83
7 92 18 25 33 5 44 -82 44 -91 0 -99 6 -88 60 l6 30 86 0 c104 0 133 17 95 54
-22 23 -226 23 -244 1z"/>
<path d="M11700 2856 c-12 -13 -14 -44 -12 -181 l3 -165 25 -6 c34 -9 38 -2
44 64 4 50 8 57 28 60 28 4 60 -23 104 -86 24 -35 35 -43 56 -40 19 2 28 10
30 26 2 12 -1 22 -7 22 -6 0 -11 5 -11 11 0 6 -9 22 -20 36 -25 32 -25 50 -2
58 40 12 55 100 28 154 -20 38 -54 51 -159 57 -74 4 -95 2 -107 -10z m207 -82
c18 -25 16 -41 -7 -64 -16 -16 -33 -20 -80 -20 l-60 0 0 54 c0 49 2 55 23 58
42 6 110 -9 124 -28z"/>
<path d="M12041 2856 c-10 -11 -9 -21 3 -44 9 -17 25 -57 37 -89 25 -69 53
-135 77 -182 41 -83 85 -62 126 60 16 46 36 98 45 114 28 49 44 124 30 141
-22 27 -53 7 -64 -42 -4 -16 -14 -45 -22 -64 -9 -19 -24 -57 -34 -84 -19 -54
-35 -69 -45 -39 -11 31 -35 87 -50 115 -7 14 -14 35 -14 46 0 58 -60 104 -89
68z"/>
<path d="M12462 2858 c-17 -17 -17 -329 0 -346 15 -15 45 -16 54 -1 8 13 7
336 -1 349 -9 14 -39 12 -53 -2z"/>
<path d="M12717 2854 c-42 -23 -66 -51 -88 -97 -49 -109 8 -224 126 -257 43
-12 54 -11 98 4 27 10 59 26 70 37 20 18 20 19 3 38 -18 20 -19 20 -57 1 -81
-42 -156 -11 -177 71 -18 71 10 128 74 149 29 10 41 8 80 -10 37 -18 50 -20
70 -11 31 14 30 21 -6 56 -27 26 -39 30 -98 32 -47 2 -75 -1 -95 -13z"/>
<path d="M13027 2858 c-16 -12 -17 -31 -15 -183 l3 -170 126 -3 c103 -2 128 0
139 13 28 33 5 44 -97 47 l-98 3 -3 43 -3 42 75 0 c91 0 106 5 106 36 0 27 2
27 -100 28 l-75 1 0 45 0 45 85 2 c47 1 91 2 98 2 6 1 12 9 12 20 0 10 -6 23
-12 29 -19 15 -220 15 -241 0z"/>
<path d="M13430 2863 c-8 -3 -27 -17 -42 -31 -23 -21 -28 -34 -28 -73 0 -42 4
-51 33 -72 17 -14 58 -31 90 -38 31 -7 62 -18 68 -25 18 -22 0 -52 -37 -64
-32 -11 -41 -9 -86 14 -39 20 -54 24 -64 15 -32 -26 0 -62 73 -84 67 -20 150
1 173 44 13 24 11 102 -3 119 -17 21 -84 52 -112 52 -15 0 -37 11 -52 26 l-27
27 23 18 c29 23 60 24 106 2 33 -16 37 -16 52 -1 22 22 10 46 -32 63 -34 15
-105 19 -135 8z"/>
<path d="M8218 2288 c-11 -11 -29 -41 -40 -67 -22 -51 -61 -136 -90 -192 -22
-45 -23 -72 -3 -89 22 -18 61 10 68 50 l7 31 86 -3 c65 -2 89 -7 94 -18 22
-47 29 -55 54 -58 17 -2 28 2 32 13 7 17 -71 199 -93 217 -7 6 -13 19 -13 30
0 30 -40 96 -62 101 -12 3 -28 -3 -40 -15z m60 -135 c32 -69 30 -73 -34 -73
-31 0 -54 3 -52 8 2 4 12 31 23 60 11 28 24 52 30 52 6 0 20 -21 33 -47z"/>
<path d="M7790 2277 c-66 -33 -92 -83 -88 -172 3 -60 7 -75 33 -107 63 -80
201 -91 265 -23 22 24 23 27 7 42 -15 15 -20 15 -69 -4 -44 -17 -59 -18 -91
-9 -88 26 -105 152 -29 214 22 17 103 15 130 -3 29 -21 65 -4 60 28 -8 54
-137 75 -218 34z"/>
<path d="M8529 2293 c-13 -3 -17 -24 -22 -101 -12 -181 -9 -240 12 -252 39
-20 56 0 63 75 3 29 5 30 65 36 98 9 136 45 135 126 -1 53 -15 79 -50 97 -27
13 -172 27 -203 19z m166 -77 c29 -19 32 -51 9 -84 -12 -17 -25 -22 -63 -22
-26 0 -52 5 -59 12 -13 13 -17 100 -4 112 11 12 89 0 117 -18z"/>
<path d="M8857 2292 c-24 -3 -28 -7 -25 -30 3 -24 8 -27 53 -32 l50 -5 5 -138
c5 -144 11 -160 51 -150 17 5 19 18 21 147 l3 141 47 3 c33 2 51 9 57 21 20
36 -1 44 -120 45 -63 1 -127 0 -142 -2z"/>
<path d="M9196 2284 c-10 -25 -7 -216 4 -253 36 -127 254 -137 290 -13 6 21
10 90 8 157 -3 109 -5 120 -22 123 -36 7 -46 -24 -46 -145 0 -135 -10 -153
-84 -153 -64 0 -76 23 -76 149 0 118 -9 151 -44 151 -13 0 -27 -7 -30 -16z"/>
<path d="M9610 2290 c-4 -3 -10 -81 -12 -173 -4 -155 -3 -169 14 -178 12 -6
25 -6 39 1 16 9 20 20 18 53 -3 64 -1 67 31 67 32 0 49 -14 93 -79 22 -32 34
-41 58 -41 39 0 38 25 -2 85 l-31 46 21 15 c43 31 57 88 36 153 -11 35 -60 52
-161 54 -53 1 -100 0 -104 -3z m147 -60 c56 0 82 -52 46 -92 -19 -21 -111 -26
-131 -6 -16 16 -16 95 1 102 6 3 21 3 32 1 11 -3 34 -5 52 -5z"/>
<path d="M9981 2286 c-9 -10 -11 -63 -9 -178 l3 -163 133 -3 132 -3 0 31 0 30
-101 0 -100 0 3 43 3 42 77 3 c83 3 112 18 88 47 -8 10 -36 15 -88 17 l-77 3
-3 38 -3 37 54 0 c30 0 75 3 101 6 39 6 46 10 46 29 0 31 -15 35 -140 35 -81
0 -110 -4 -119 -14z"/>
<path d="M10832 2288 c-8 -8 -12 -58 -12 -169 0 -130 3 -160 16 -173 34 -35
52 -13 56 69 l3 70 78 3 77 3 1 -48 c1 -26 0 -57 0 -69 -2 -27 23 -47 49 -39
19 6 20 14 20 181 0 152 -2 175 -16 181 -34 13 -49 -11 -52 -81 l-3 -66 -74 0
c-84 0 -82 -2 -87 95 -3 41 -6 50 -23 53 -11 1 -26 -3 -33 -10z"/>
<path d="M11328 2293 l-108 -4 0 -175 0 -175 133 3 132 3 0 25 c0 25 -1 25
-97 28 l-98 3 0 44 0 45 79 0 c58 0 82 4 91 15 10 12 10 18 0 30 -9 11 -33 15
-90 15 -81 0 -90 5 -90 50 0 30 32 40 120 40 66 0 82 3 87 16 6 18 -22 46 -41
42 -6 -1 -59 -4 -118 -5z"/>
<path d="M11751 2288 c-20 -7 -21 -15 -21 -172 0 -153 1 -166 19 -176 39 -20
51 -3 51 71 l0 68 83 3 c80 3 82 4 82 28 0 24 -3 25 -80 30 l-80 5 0 40 0 40
87 5 c48 3 92 10 99 17 16 16 4 43 -18 43 -10 0 -59 2 -110 3 -50 2 -101 0
-112 -5z"/>
<path d="M12075 2290 c-13 -21 -7 -257 6 -286 25 -50 61 -68 138 -68 125 1
149 36 152 222 0 66 -2 125 -6 131 -10 18 -43 13 -55 -9 -6 -11 -9 -66 -8
-129 4 -131 -7 -151 -78 -151 -70 0 -84 23 -86 139 -2 135 -2 135 -11 149 -10
14 -43 16 -52 2z"/>
<path d="M12482 2288 c-8 -8 -12 -61 -12 -174 0 -176 6 -197 49 -174 19 10 21
20 21 110 0 113 8 122 53 62 15 -20 50 -67 77 -103 28 -37 57 -69 65 -73 16
-6 45 2 45 13 0 3 2 75 5 160 4 166 -1 194 -38 189 -20 -3 -22 -10 -24 -73 -3
-86 -11 -135 -22 -135 -4 0 -35 37 -69 83 -96 130 -118 147 -150 115z"/>
<path d="M10454 2275 c-12 -31 4 -44 58 -47 l53 -3 2 -133 c2 -149 4 -162 31
-162 37 0 44 23 42 152 -1 68 -1 128 -1 135 1 7 22 13 54 15 48 3 52 5 52 28
l0 25 -143 3 c-120 2 -143 0 -148 -13z"/>
</g>
</svg>
